<svg xmlns="http://www.w3.org/2000/svg" width="66" height="16" viewBox="0 0 66 16" fill="none">
   <path d="M57.6001 0.319336C53.1817 0.319336 49.6001 3.62446 49.6001 7.70179C49.6001 11.7791 53.1817 15.0842 57.6001 15.0842C62.0185 15.0842 65.6001 11.7791 65.6001 7.70179C65.6001 3.62446 62.0185 0.319336 57.6001 0.319336ZM57.6001 1.79583C61.1345 1.79583 64.0001 4.44022 64.0001 7.70179C64.0001 10.6063 61.725 13.0158 58.7313 13.5097V9.94248H60.6235L60.9048 7.93105H58.7438V6.64921C58.7438 6.06748 58.9195 5.6745 59.8235 5.6745H60.9657V3.87935C60.4097 3.82694 59.8515 3.80145 59.2923 3.80293C57.6331 3.80293 56.497 4.73743 56.497 6.45312V7.93393H54.622V9.94536H56.497V13.514C53.4895 13.0306 51.2001 10.6154 51.2001 7.70179C51.2001 4.44022 54.0657 1.79583 57.6001 1.79583Z" fill="white"/>
 </svg>