<svg xmlns="http://www.w3.org/2000/svg" width="23" height="23" viewBox="0 0 23 23" fill="none">
  <g clip-path="url(#clip0_694_317)">
    <path d="M6.87373 0.699951H4.17373C3.21895 0.699951 2.30328 1.07924 1.62815 1.75437C0.953015 2.4295 0.57373 3.34517 0.57373 4.29995L0.57373 6.99995C0.57373 7.95473 0.953015 8.8704 1.62815 9.54554C2.30328 10.2207 3.21895 10.6 4.17373 10.6H6.87373C7.82851 10.6 8.74418 10.2207 9.41931 9.54554C10.0944 8.8704 10.4737 7.95473 10.4737 6.99995V4.29995C10.4737 3.34517 10.0944 2.4295 9.41931 1.75437C8.74418 1.07924 7.82851 0.699951 6.87373 0.699951V0.699951ZM8.67373 6.99995C8.67373 7.47734 8.48409 7.93518 8.14652 8.27274C7.80896 8.61031 7.35112 8.79995 6.87373 8.79995H4.17373C3.69634 8.79995 3.2385 8.61031 2.90094 8.27274C2.56337 7.93518 2.37373 7.47734 2.37373 6.99995V4.29995C2.37373 3.82256 2.56337 3.36472 2.90094 3.02716C3.2385 2.68959 3.69634 2.49995 4.17373 2.49995H6.87373C7.35112 2.49995 7.80896 2.68959 8.14652 3.02716C8.48409 3.36472 8.67373 3.82256 8.67373 4.29995V6.99995Z" fill="black"/>
    <path d="M6.87373 12.3999H4.17373C3.21895 12.3999 2.30328 12.7792 1.62815 13.4543C0.953015 14.1295 0.57373 15.0451 0.57373 15.9999L0.57373 18.6999C0.57373 19.6547 0.953015 20.5704 1.62815 21.2455C2.30328 21.9206 3.21895 22.2999 4.17373 22.2999H6.87373C7.82851 22.2999 8.74418 21.9206 9.41931 21.2455C10.0944 20.5704 10.4737 19.6547 10.4737 18.6999V15.9999C10.4737 15.0451 10.0944 14.1295 9.41931 13.4543C8.74418 12.7792 7.82851 12.3999 6.87373 12.3999ZM8.67373 18.6999C8.67373 19.1773 8.48409 19.6351 8.14652 19.9727C7.80896 20.3103 7.35112 20.4999 6.87373 20.4999H4.17373C3.69634 20.4999 3.2385 20.3103 2.90094 19.9727C2.56337 19.6351 2.37373 19.1773 2.37373 18.6999V15.9999C2.37373 15.5225 2.56337 15.0647 2.90094 14.7271C3.2385 14.3895 3.69634 14.1999 4.17373 14.1999H6.87373C7.35112 14.1999 7.80896 14.3895 8.14652 14.7271C8.48409 15.0647 8.67373 15.5225 8.67373 15.9999V18.6999Z" fill="black"/>
    <path d="M20.6377 17.8439L18.574 19.9049V3.0695L20.6377 5.1305C20.7213 5.21406 20.8206 5.28033 20.9298 5.32553C21.039 5.37073 21.1561 5.39398 21.2743 5.39394C21.3925 5.39389 21.5096 5.37057 21.6188 5.32529C21.728 5.28001 21.8272 5.21367 21.9107 5.13005C21.9943 5.04643 22.0606 4.94717 22.1058 4.83794C22.151 4.72871 22.1742 4.61165 22.1742 4.49343C22.1741 4.37522 22.1508 4.25817 22.1055 4.14897C22.0603 4.03977 21.9939 3.94056 21.9103 3.857L19.582 1.5323C19.0758 1.02668 18.3895 0.742676 17.674 0.742676C16.9585 0.742676 16.2723 1.02668 15.766 1.5323L13.4377 3.857C13.3541 3.94056 13.2877 4.03977 13.2425 4.14897C13.1972 4.25817 13.1739 4.37522 13.1738 4.49343C13.1738 4.61165 13.197 4.72871 13.2422 4.83794C13.2874 4.94717 13.3537 5.04643 13.4373 5.13005C13.5208 5.21367 13.62 5.28001 13.7292 5.32529C13.8384 5.37057 13.9555 5.39389 14.0737 5.39394C14.1919 5.39398 14.309 5.37073 14.4182 5.32553C14.5274 5.28033 14.6267 5.21406 14.7103 5.1305L16.774 3.0695V19.9049L14.7103 17.8439C14.6267 17.7604 14.5274 17.6941 14.4182 17.6489C14.309 17.6037 14.1919 17.5804 14.0737 17.5805C13.9555 17.5805 13.8384 17.6038 13.7292 17.6491C13.62 17.6944 13.5208 17.7607 13.4373 17.8444C13.3537 17.928 13.2874 18.0272 13.2422 18.1365C13.197 18.2457 13.1738 18.3628 13.1738 18.481C13.1739 18.5992 13.1972 18.7162 13.2425 18.8254C13.2877 18.9346 13.3541 19.0339 13.4377 19.1174L15.766 21.4421C16.2723 21.9477 16.9585 22.2317 17.674 22.2317C18.3895 22.2317 19.0758 21.9477 19.582 21.4421L21.9103 19.1174C21.9939 19.0339 22.0603 18.9346 22.1055 18.8254C22.1508 18.7162 22.1741 18.5992 22.1742 18.481C22.1742 18.3628 22.151 18.2457 22.1058 18.1365C22.0606 18.0272 21.9943 17.928 21.9107 17.8444C21.8272 17.7607 21.728 17.6944 21.6188 17.6491C21.5096 17.6038 21.3925 17.5805 21.2743 17.5805C21.1561 17.5804 21.039 17.6037 20.9298 17.6489C20.8206 17.6941 20.7213 17.7604 20.6377 17.8439Z" fill="black"/>
  </g>
  <defs>
    <clipPath id="clip0_694_317">
      <rect width="21.6" height="21.6" fill="white" transform="translate(0.57373 0.699951)"/>
    </clipPath>
  </defs>
</svg>