<svg width="73" height="73" viewBox="0 0 73 73" fill="none" xmlns="http://www.w3.org/2000/svg">
<path d="M36.5002 61.8201C50.5003 61.8201 61.8202 50.5002 61.8202 36.5001C61.8202 22.4999 50.5003 11.1801 36.5002 11.1801C22.5 11.1801 11.1802 22.4999 11.1802 36.5001C11.1802 50.5002 22.5 61.8201 36.5002 61.8201ZM36.5002 57.9001C24.6583 57.9001 15.1002 48.3419 15.1002 36.5001C15.1002 24.6582 24.6583 15.1001 36.5002 15.1001C48.342 15.1001 57.9002 24.6582 57.9002 36.5001C57.9002 48.3419 48.342 57.9001 36.5002 57.9001Z" fill="black" stroke="black"/>
<path d="M39.3354 24.7357L39.689 24.3821L39.3354 24.0286L37.2914 21.9846L36.9379 21.631L36.5843 21.9846L22.4223 36.1466L22.0688 36.5001L22.4223 36.8537L36.5843 51.0157L36.9379 51.3692L37.2914 51.0157L39.3354 48.9717L39.689 48.6181L39.3354 48.2646L27.571 36.5001L39.3354 24.7357Z" fill="black" stroke="black"/>
<path d="M24.3198 37.96V38.46H24.8198H49.6398H50.1398V37.96V35.04V34.54H49.6398H24.8198H24.3198V35.04V37.96Z" fill="black" stroke="black"/>
</svg>
