<svg width="12" height="7" viewBox="0 0 12 7" fill="none" xmlns="http://www.w3.org/2000/svg">
<g id="Arrow comp">
<path id="Vector" d="M0.899808 0L10.9546 0C11.1326 3.80018e-05 11.3066 0.0528424 11.4545 0.151738C11.6025 0.250634 11.7178 0.391181 11.7859 0.55561C11.854 0.72004 11.8718 0.900969 11.8371 1.07553C11.8024 1.25008 11.7167 1.41043 11.5909 1.5363L6.56351 6.56369C6.39473 6.73241 6.16586 6.8272 5.92721 6.8272C5.68856 6.8272 5.45968 6.73241 5.29091 6.56369L0.263508 1.5363C0.13768 1.41043 0.0519939 1.25008 0.0172831 1.07553C-0.0174277 0.900969 0.00039521 0.72004 0.0684982 0.55561C0.136601 0.391181 0.251927 0.250634 0.399896 0.151738C0.547865 0.0528424 0.721833 3.80018e-05 0.899808 0Z" fill="black"/>
</g>
</svg>
