<svg xmlns="http://www.w3.org/2000/svg" width="23" height="23" viewBox="0 0 23 23" fill="none">
  <g clip-path="url(#clip0_694_325)">
    <path d="M13.1846 22.2999C12.9899 22.2999 12.8004 22.2368 12.6446 22.1199L9.0446 19.4199C8.93283 19.3361 8.8421 19.2274 8.77962 19.1024C8.71713 18.9775 8.6846 18.8397 8.6846 18.6999V13.6419L2.3702 6.53825C1.92175 6.03234 1.62894 5.40768 1.52697 4.73936C1.425 4.07104 1.51821 3.38749 1.79539 2.77086C2.07257 2.15424 2.52193 1.63078 3.08946 1.26341C3.65699 0.896037 4.31854 0.700378 4.9946 0.699951H17.7746C18.4506 0.700744 19.112 0.896727 19.6793 1.26435C20.2466 1.63197 20.6957 2.15559 20.9725 2.77228C21.2494 3.38897 21.3423 4.0725 21.2401 4.74072C21.1379 5.40895 20.8449 6.03344 20.3963 6.53915L14.0846 13.6419V21.4C14.0846 21.6386 13.9898 21.8676 13.821 22.0363C13.6522 22.2051 13.4233 22.2999 13.1846 22.2999ZM10.4846 18.25L12.2846 19.5999V13.2999C12.2848 13.0796 12.3658 12.867 12.5123 12.7024L19.0535 5.34305C19.2716 5.09652 19.4139 4.79229 19.4634 4.46686C19.5128 4.14143 19.4673 3.80864 19.3323 3.50845C19.1973 3.20826 18.9785 2.95342 18.7021 2.77453C18.4258 2.59564 18.1038 2.5003 17.7746 2.49995H4.9946C4.66561 2.50045 4.34374 2.59584 4.06761 2.77469C3.79147 2.95354 3.57279 3.20825 3.43779 3.50827C3.30279 3.80829 3.2572 4.14088 3.3065 4.46616C3.35579 4.79144 3.49787 5.0956 3.7157 5.34215L10.2578 12.7024C10.404 12.8671 10.4847 13.0797 10.4846 13.2999V18.25Z" fill="black"/>
  </g>
  <defs>
    <clipPath id="clip0_694_325">
      <rect width="21.6" height="21.6" fill="white" transform="translate(0.584473 0.699951)"/>
    </clipPath>
  </defs>
</svg>