<svg width="40" height="36" viewBox="0 0 40 36" fill="none" xmlns="http://www.w3.org/2000/svg">
<g id="Group">
<path id="Vector" d="M16 16C20.42 16 24 12.42 24 8C24 3.58 20.42 0 16 0C11.58 0 8 3.58 8 8C8 12.42 11.58 16 16 16ZM16 4C18.2 4 20 5.8 20 8C20 10.2 18.2 12 16 12C13.8 12 12 10.2 12 8C12 5.8 13.8 4 16 4Z" fill="black"/>
<path id="Vector_2" d="M4 28C4.44 26.56 10.62 24 16 24C16 22.6 16.26 21.26 16.7 20.02C11.24 19.82 0 22.54 0 28V32H19.08C18.04 30.84 17.22 29.5 16.7 28H4Z" fill="black"/>
<path id="Vector_3" d="M34.86 28.04C35.58 26.86 36 25.48 36 24C36 19.58 32.42 16 28 16C23.58 16 20 19.58 20 24C20 28.42 23.58 32 28 32C29.48 32 30.86 31.56 32.04 30.86C33.9 32.72 35.28 34.1 37.18 36L40 33.18C37 30.18 38.42 31.58 34.86 28.04ZM28 28C25.8 28 24 26.2 24 24C24 21.8 25.8 20 28 20C30.2 20 32 21.8 32 24C32 26.2 30.2 28 28 28Z" fill="black"/>
</g>
</svg>
