<svg xmlns="http://www.w3.org/2000/svg" width="66" height="16" viewBox="0 0 66 16" fill="none">
   <path d="M26.5776 0.319336C25.5954 0.319336 24.7998 1.05348 24.7998 1.95988V13.4437C24.7998 14.3501 25.5954 15.0842 26.5776 15.0842H39.022C40.0042 15.0842 40.7998 14.3501 40.7998 13.4437V1.95988C40.7998 1.05348 40.0042 0.319336 39.022 0.319336H26.5776ZM26.5776 1.95988H39.022V13.4437H26.5776V1.95988ZM29.0481 3.03969C28.2863 3.03969 27.8293 3.46227 27.8293 4.02497C27.8293 4.58768 28.2863 5.00866 28.9717 5.00866C29.7335 5.00866 30.1904 4.58768 30.1904 4.02497C30.1904 3.46227 29.7334 3.03969 29.0481 3.03969ZM27.8901 6.06123V11.8031H30.1331V6.06123H27.8901ZM31.9838 6.06123V11.8031H34.2269V8.66463C34.2269 7.73034 34.9492 7.59604 35.1661 7.59604C35.383 7.59604 35.963 7.79678 35.963 8.66463V11.8031H38.1331V8.66463C38.1331 6.8625 37.2653 6.06123 36.18 6.06123C35.0947 6.06123 34.5158 6.39472 34.2269 6.86228V6.06123H31.9838Z" fill="white"/>
</svg>