<svg width="218" height="55" viewBox="0 0 218 55" fill="none" xmlns="http://www.w3.org/2000/svg">
<rect x="0.5" y="0.5" width="217" height="54" fill="white"/>
<rect x="0.5" y="0.5" width="217" height="54" stroke="black"/>
<path d="M66.9329 38.3096C63.5892 38.3096 61.8555 36.3282 61.8555 32.8606V16.328H65.2611V33.1083C65.2611 34.6563 65.9112 35.2136 66.9948 35.2136C68.0784 35.2136 68.7286 34.6563 68.7286 33.1083V16.328H72.0104V32.8606C72.0104 36.3282 70.2766 38.3096 66.9329 38.3096ZM74.4359 38V16.328H79.4514C82.857 16.328 84.5288 18.2166 84.5288 21.6841V23.8203C84.5288 27.2878 82.857 29.1764 79.4514 29.1764H77.8415V38H74.4359ZM77.8415 26.0804H79.4514C80.535 26.0804 81.1232 25.585 81.1232 24.037V21.4674C81.1232 19.9194 80.535 19.424 79.4514 19.424H77.8415V26.0804ZM86.3785 38V16.328H89.7841V34.904H95.3878V38H86.3785ZM101.823 38.3096C98.479 38.3096 96.6523 36.3282 96.6523 32.8606V21.4674C96.6523 17.9998 98.479 16.0184 101.823 16.0184C105.166 16.0184 106.993 17.9998 106.993 21.4674V32.8606C106.993 36.3282 105.166 38.3096 101.823 38.3096ZM101.823 35.2136C102.906 35.2136 103.587 34.6254 103.587 33.0774V21.2506C103.587 19.7026 102.906 19.1144 101.823 19.1144C100.739 19.1144 100.058 19.7026 100.058 21.2506V33.0774C100.058 34.6254 100.739 35.2136 101.823 35.2136ZM108.338 38L111.867 16.328H116.48L120.01 38H116.604L115.985 33.6966V33.7585H112.115L111.496 38H108.338ZM112.517 30.8173H115.582L114.065 20.1051H114.003L112.517 30.8173ZM121.662 38V16.328H126.863C130.269 16.328 131.941 18.2166 131.941 21.6841V32.6439C131.941 36.1114 130.269 38 126.863 38H121.662ZM125.068 34.904H126.801C127.885 34.904 128.535 34.3467 128.535 32.7987V21.5293C128.535 19.9813 127.885 19.424 126.801 19.424H125.068V34.904ZM139.198 38V16.328H142.604V38H139.198ZM145.154 38V16.328H150.015L152.182 31.839H152.244L154.411 16.328H159.272V38H156.052V21.5912H155.99L153.513 38H150.665L148.188 21.5912H148.126V38H145.154ZM160.915 38L164.445 16.328H169.058L172.587 38H169.182L168.563 33.6966V33.7585H164.693L164.073 38H160.915ZM165.095 30.8173H168.16L166.643 20.1051H166.581L165.095 30.8173ZM179.009 38.3096C175.665 38.3096 173.931 36.3282 173.931 32.8606V21.4674C173.931 17.9998 175.665 16.0184 179.009 16.0184C182.353 16.0184 184.086 17.9998 184.086 21.4674V23.325H180.866V21.2506C180.866 19.7026 180.185 19.1144 179.102 19.1144C178.018 19.1144 177.337 19.7026 177.337 21.2506V33.1083C177.337 34.6563 178.018 35.2136 179.102 35.2136C180.185 35.2136 180.866 34.6563 180.866 33.1083V28.8668H179.164V25.7708H184.086V32.8606C184.086 36.3282 182.353 38.3096 179.009 38.3096ZM186.273 38V16.328H195.561V19.424H189.678V25.1516H194.353V28.2476H189.678V34.904H195.561V38H186.273Z" fill="black"/>
<path d="M22.2857 35.4284H31.7143V25.9999H38L27 15L16 25.9999H22.2857V35.4284ZM27 19.4471L30.41 22.8571H28.5714V32.2856H25.4286V22.8571H23.59L27 19.4471ZM16 38.5713H38V41.7141H16V38.5713Z" fill="black"/>
</svg>
