<svg xmlns="http://www.w3.org/2000/svg" width="15" height="13" viewBox="0 0 15 13" fill="none">
<path d="M1.56377 0L13.4399 0C13.6501 7.23037e-05 13.8556 0.10054 14.0303 0.288703C14.2051 0.476865 14.3413 0.744275 14.4217 1.05713C14.5022 1.36998 14.5232 1.71422 14.4822 2.04634C14.4412 2.37846 14.34 2.68354 14.1914 2.92302L8.25337 12.4883C8.05403 12.8093 7.78369 12.9897 7.50182 12.9897C7.21994 12.9897 6.94961 12.8093 6.75026 12.4883L0.812216 2.92302C0.663595 2.68354 0.562388 2.37846 0.52139 2.04634C0.480392 1.71422 0.501443 1.36998 0.581882 1.05713C0.662321 0.744275 0.798536 0.476865 0.973308 0.288703C1.14808 0.10054 1.35356 7.23037e-05 1.56377 0Z" fill="black"/>
</svg>
